<?xml version="1.0" encoding="utf-8" ?>
<svg baseProfile="full" height="100%" version="1.1" width="100%" xmlns="http://www.w3.org/2000/svg" xmlns:ev="http://www.w3.org/2001/xml-events" xmlns:xlink="http://www.w3.org/1999/xlink"><defs /><rect fill="rgb(129,102,141)" height="1.5cm" width="1.5cm" x="0.0cm" y="0.0cm" /><rect fill="rgb(143,112,147)" height="1.5cm" width="1.5cm" x="1.5cm" y="0.0cm" /><rect fill="rgb(111,108,119)" height="1.5cm" width="1.5cm" x="3.0cm" y="0.0cm" /><rect fill="rgb(113,126,119)" height="1.5cm" width="1.5cm" x="4.5cm" y="0.0cm" /><rect fill="rgb(103,119,136)" height="1.5cm" width="1.5cm" x="6.0cm" y="0.0cm" /><rect fill="rgb(131,146,108)" height="1.5cm" width="1.5cm" x="7.5cm" y="0.0cm" /><rect fill="rgb(130,130,131)" height="1.5cm" width="1.5cm" x="9.0cm" y="0.0cm" /><rect fill="rgb(109,113,111)" height="1.5cm" width="1.5cm" x="10.5cm" y="0.0cm" /><rect fill="rgb(111,143,130)" height="1.5cm" width="1.5cm" x="12.0cm" y="0.0cm" /><rect fill="rgb(122,124,107)" height="1.5cm" width="1.5cm" x="13.5cm" y="0.0cm" /><rect fill="rgb(117,140,145)" height="1.5cm" width="1.5cm" x="15.0cm" y="0.0cm" /><rect fill="rgb(144,140,129)" height="1.5cm" width="1.5cm" x="16.5cm" y="0.0cm" /><rect fill="rgb(159,174,156)" height="1.5cm" width="1.5cm" x="18.0cm" y="0.0cm" /><rect fill="rgb(173,181,170)" height="1.5cm" width="1.5cm" x="19.5cm" y="0.0cm" /><rect fill="rgb(183,198,178)" height="1.5cm" width="1.5cm" x="21.0cm" y="0.0cm" /><rect fill="rgb(189,204,188)" height="1.5cm" width="1.5cm" x="22.5cm" y="0.0cm" /><rect fill="rgb(194,210,195)" height="1.5cm" width="1.5cm" x="24.0cm" y="0.0cm" /><rect fill="rgb(198,213,200)" height="1.5cm" width="1.5cm" x="25.5cm" y="0.0cm" /><rect fill="rgb(197,212,200)" height="1.5cm" width="1.5cm" x="27.0cm" y="0.0cm" /><rect fill="rgb(190,209,193)" height="1.5cm" width="1.5cm" x="28.5cm" y="0.0cm" /><rect fill="rgb(114,138,126)" height="1.5cm" width="1.5cm" x="0.0cm" y="1.5cm" /><rect fill="rgb(132,114,134)" height="1.5cm" width="1.5cm" x="1.5cm" y="1.5cm" /><rect fill="rgb(112,118,138)" height="1.5cm" width="1.5cm" x="3.0cm" y="1.5cm" /><rect fill="rgb(120,112,135)" height="1.5cm" width="1.5cm" x="4.5cm" y="1.5cm" /><rect fill="rgb(123,120,128)" height="1.5cm" width="1.5cm" x="6.0cm" y="1.5cm" /><rect fill="rgb(125,139,128)" height="1.5cm" width="1.5cm" x="7.5cm" y="1.5cm" /><rect fill="rgb(140,150,123)" height="1.5cm" width="1.5cm" x="9.0cm" y="1.5cm" /><rect fill="rgb(139,107,141)" height="1.5cm" width="1.5cm" x="10.5cm" y="1.5cm" /><rect fill="rgb(103,140,140)" height="1.5cm" width="1.5cm" x="12.0cm" y="1.5cm" /><rect fill="rgb(119,136,145)" height="1.5cm" width="1.5cm" x="13.5cm" y="1.5cm" /><rect fill="rgb(137,124,123)" height="1.5cm" width="1.5cm" x="15.0cm" y="1.5cm" /><rect fill="rgb(145,167,153)" height="1.5cm" width="1.5cm" x="16.5cm" y="1.5cm" /><rect fill="rgb(162,173,158)" height="1.5cm" width="1.5cm" x="18.0cm" y="1.5cm" /><rect fill="rgb(176,193,171)" height="1.5cm" width="1.5cm" x="19.5cm" y="1.5cm" /><rect fill="rgb(186,203,184)" height="1.5cm" width="1.5cm" x="21.0cm" y="1.5cm" /><rect fill="rgb(193,209,193)" height="1.5cm" width="1.5cm" x="22.5cm" y="1.5cm" /><rect fill="rgb(199,215,201)" height="1.5cm" width="1.5cm" x="24.0cm" y="1.5cm" /><rect fill="rgb(204,219,207)" height="1.5cm" width="1.5cm" x="25.5cm" y="1.5cm" /><rect fill="rgb(206,221,210)" height="1.5cm" width="1.5cm" x="27.0cm" y="1.5cm" /><rect fill="rgb(203,218,208)" height="1.5cm" width="1.5cm" x="28.5cm" y="1.5cm" /><rect fill="rgb(102,111,145)" height="1.5cm" width="1.5cm" x="0.0cm" y="3.0cm" /><rect fill="rgb(102,124,105)" height="1.5cm" width="1.5cm" x="1.5cm" y="3.0cm" /><rect fill="rgb(142,146,116)" height="1.5cm" width="1.5cm" x="3.0cm" y="3.0cm" /><rect fill="rgb(109,124,130)" height="1.5cm" width="1.5cm" x="4.5cm" y="3.0cm" /><rect fill="rgb(141,132,138)" height="1.5cm" width="1.5cm" x="6.0cm" y="3.0cm" /><rect fill="rgb(140,140,132)" height="1.5cm" width="1.5cm" x="7.5cm" y="3.0cm" /><rect fill="rgb(141,123,125)" height="1.5cm" width="1.5cm" x="9.0cm" y="3.0cm" /><rect fill="rgb(129,121,135)" height="1.5cm" width="1.5cm" x="10.5cm" y="3.0cm" /><rect fill="rgb(118,137,123)" height="1.5cm" width="1.5cm" x="12.0cm" y="3.0cm" /><rect fill="rgb(129,132,123)" height="1.5cm" width="1.5cm" x="13.5cm" y="3.0cm" /><rect fill="rgb(146,136,120)" height="1.5cm" width="1.5cm" x="15.0cm" y="3.0cm" /><rect fill="rgb(153,150,135)" height="1.5cm" width="1.5cm" x="16.5cm" y="3.0cm" /><rect fill="rgb(162,180,169)" height="1.5cm" width="1.5cm" x="18.0cm" y="3.0cm" /><rect fill="rgb(180,196,179)" height="1.5cm" width="1.5cm" x="19.5cm" y="3.0cm" /><rect fill="rgb(187,204,187)" height="1.5cm" width="1.5cm" x="21.0cm" y="3.0cm" /><rect fill="rgb(194,211,196)" height="1.5cm" width="1.5cm" x="22.5cm" y="3.0cm" /><rect fill="rgb(201,217,204)" height="1.5cm" width="1.5cm" x="24.0cm" y="3.0cm" /><rect fill="rgb(207,223,212)" height="1.5cm" width="1.5cm" x="25.5cm" y="3.0cm" /><rect fill="rgb(210,225,216)" height="1.5cm" width="1.5cm" x="27.0cm" y="3.0cm" /><rect fill="rgb(210,225,216)" height="1.5cm" width="1.5cm" x="28.5cm" y="3.0cm" /><rect fill="rgb(109,129,119)" height="1.5cm" width="1.5cm" x="0.0cm" y="4.5cm" /><rect fill="rgb(129,124,128)" height="1.5cm" width="1.5cm" x="1.5cm" y="4.5cm" /><rect fill="rgb(121,142,115)" height="1.5cm" width="1.5cm" x="3.0cm" y="4.5cm" /><rect fill="rgb(136,127,103)" height="1.5cm" width="1.5cm" x="4.5cm" y="4.5cm" /><rect fill="rgb(143,141,106)" height="1.5cm" width="1.5cm" x="6.0cm" y="4.5cm" /><rect fill="rgb(138,146,126)" height="1.5cm" width="1.5cm" x="7.5cm" y="4.5cm" /><rect fill="rgb(129,132,114)" height="1.5cm" width="1.5cm" x="9.0cm" y="4.5cm" /><rect fill="rgb(131,105,115)" height="1.5cm" width="1.5cm" x="10.5cm" y="4.5cm" /><rect fill="rgb(131,139,115)" height="1.5cm" width="1.5cm" x="12.0cm" y="4.5cm" /><rect fill="rgb(102,111,124)" height="1.5cm" width="1.5cm" x="13.5cm" y="4.5cm" /><rect fill="rgb(125,116,134)" height="1.5cm" width="1.5cm" x="15.0cm" y="4.5cm" /><rect fill="rgb(146,155,147)" height="1.5cm" width="1.5cm" x="16.5cm" y="4.5cm" /><rect fill="rgb(162,171,166)" height="1.5cm" width="1.5cm" x="18.0cm" y="4.5cm" /><rect fill="rgb(179,192,175)" height="1.5cm" width="1.5cm" x="19.5cm" y="4.5cm" /><rect fill="rgb(186,204,188)" height="1.5cm" width="1.5cm" x="21.0cm" y="4.5cm" /><rect fill="rgb(193,211,196)" height="1.5cm" width="1.5cm" x="22.5cm" y="4.5cm" /><rect fill="rgb(202,218,206)" height="1.5cm" width="1.5cm" x="24.0cm" y="4.5cm" /><rect fill="rgb(208,224,214)" height="1.5cm" width="1.5cm" x="25.5cm" y="4.5cm" /><rect fill="rgb(211,227,218)" height="1.5cm" width="1.5cm" x="27.0cm" y="4.5cm" /><rect fill="rgb(211,226,218)" height="1.5cm" width="1.5cm" x="28.5cm" y="4.5cm" /><rect fill="rgb(139,128,131)" height="1.5cm" width="1.5cm" x="0.0cm" y="6.0cm" /><rect fill="rgb(108,115,141)" height="1.5cm" width="1.5cm" x="1.5cm" y="6.0cm" /><rect fill="rgb(132,148,126)" height="1.5cm" width="1.5cm" x="3.0cm" y="6.0cm" /><rect fill="rgb(136,137,134)" height="1.5cm" width="1.5cm" x="4.5cm" y="6.0cm" /><rect fill="rgb(124,110,120)" height="1.5cm" width="1.5cm" x="6.0cm" y="6.0cm" /><rect fill="rgb(118,136,98)" height="1.5cm" width="1.5cm" x="7.5cm" y="6.0cm" /><rect fill="rgb(109,129,95)" height="1.5cm" width="1.5cm" x="9.0cm" y="6.0cm" /><rect fill="rgb(129,112,101)" height="1.5cm" width="1.5cm" x="10.5cm" y="6.0cm" /><rect fill="rgb(110,112,101)" height="1.5cm" width="1.5cm" x="12.0cm" y="6.0cm" /><rect fill="rgb(111,118,97)" height="1.5cm" width="1.5cm" x="13.5cm" y="6.0cm" /><rect fill="rgb(102,103,96)" height="1.5cm" width="1.5cm" x="15.0cm" y="6.0cm" /><rect fill="rgb(118,129,107)" height="1.5cm" width="1.5cm" x="16.5cm" y="6.0cm" /><rect fill="rgb(142,156,138)" height="1.5cm" width="1.5cm" x="18.0cm" y="6.0cm" /><rect fill="rgb(168,186,167)" height="1.5cm" width="1.5cm" x="19.5cm" y="6.0cm" /><rect fill="rgb(181,199,184)" height="1.5cm" width="1.5cm" x="21.0cm" y="6.0cm" /><rect fill="rgb(190,208,194)" height="1.5cm" width="1.5cm" x="22.5cm" y="6.0cm" /><rect fill="rgb(199,216,204)" height="1.5cm" width="1.5cm" x="24.0cm" y="6.0cm" /><rect fill="rgb(206,222,212)" height="1.5cm" width="1.5cm" x="25.5cm" y="6.0cm" /><rect fill="rgb(209,225,216)" height="1.5cm" width="1.5cm" x="27.0cm" y="6.0cm" /><rect fill="rgb(209,225,215)" height="1.5cm" width="1.5cm" x="28.5cm" y="6.0cm" /><rect fill="rgb(134,106,107)" height="1.5cm" width="1.5cm" x="0.0cm" y="7.5cm" /><rect fill="rgb(110,114,111)" height="1.5cm" width="1.5cm" x="1.5cm" y="7.5cm" /><rect fill="rgb(125,146,110)" height="1.5cm" width="1.5cm" x="3.0cm" y="7.5cm" /><rect fill="rgb(109,128,124)" height="1.5cm" width="1.5cm" x="4.5cm" y="7.5cm" /><rect fill="rgb(130,143,115)" height="1.5cm" width="1.5cm" x="6.0cm" y="7.5cm" /><rect fill="rgb(110,119,101)" height="1.5cm" width="1.5cm" x="7.5cm" y="7.5cm" /><rect fill="rgb(122,131,81)" height="1.5cm" width="1.5cm" x="9.0cm" y="7.5cm" /><rect fill="rgb(99,109,73)" height="1.5cm" width="1.5cm" x="10.5cm" y="7.5cm" /><rect fill="rgb(80,105,65)" height="1.5cm" width="1.5cm" x="12.0cm" y="7.5cm" /><rect fill="rgb(66,84,51)" height="1.5cm" width="1.5cm" x="13.5cm" y="7.5cm" /><rect fill="rgb(76,88,48)" height="1.5cm" width="1.5cm" x="15.0cm" y="7.5cm" /><rect fill="rgb(86,98,64)" height="1.5cm" width="1.5cm" x="16.5cm" y="7.5cm" /><rect fill="rgb(108,127,101)" height="1.5cm" width="1.5cm" x="18.0cm" y="7.5cm" /><rect fill="rgb(145,160,139)" height="1.5cm" width="1.5cm" x="19.5cm" y="7.5cm" /><rect fill="rgb(167,185,169)" height="1.5cm" width="1.5cm" x="21.0cm" y="7.5cm" /><rect fill="rgb(182,201,187)" height="1.5cm" width="1.5cm" x="22.5cm" y="7.5cm" /><rect fill="rgb(193,211,199)" height="1.5cm" width="1.5cm" x="24.0cm" y="7.5cm" /><rect fill="rgb(199,217,207)" height="1.5cm" width="1.5cm" x="25.5cm" y="7.5cm" /><rect fill="rgb(203,220,210)" height="1.5cm" width="1.5cm" x="27.0cm" y="7.5cm" /><rect fill="rgb(203,217,207)" height="1.5cm" width="1.5cm" x="28.5cm" y="7.5cm" /><rect fill="rgb(110,128,135)" height="1.5cm" width="1.5cm" x="0.0cm" y="9.0cm" /><rect fill="rgb(143,140,133)" height="1.5cm" width="1.5cm" x="1.5cm" y="9.0cm" /><rect fill="rgb(125,127,127)" height="1.5cm" width="1.5cm" x="3.0cm" y="9.0cm" /><rect fill="rgb(127,148,100)" height="1.5cm" width="1.5cm" x="4.5cm" y="9.0cm" /><rect fill="rgb(112,141,105)" height="1.5cm" width="1.5cm" x="6.0cm" y="9.0cm" /><rect fill="rgb(120,119,97)" height="1.5cm" width="1.5cm" x="7.5cm" y="9.0cm" /><rect fill="rgb(84,109,76)" height="1.5cm" width="1.5cm" x="9.0cm" y="9.0cm" /><rect fill="rgb(75,95,36)" height="1.5cm" width="1.5cm" x="10.5cm" y="9.0cm" /><rect fill="rgb(62,84,26)" height="1.5cm" width="1.5cm" x="12.0cm" y="9.0cm" /><rect fill="rgb(52,74,15)" height="1.5cm" width="1.5cm" x="13.5cm" y="9.0cm" /><rect fill="rgb(48,72,15)" height="1.5cm" width="1.5cm" x="15.0cm" y="9.0cm" /><rect fill="rgb(54,77,25)" height="1.5cm" width="1.5cm" x="16.5cm" y="9.0cm" /><rect fill="rgb(71,90,49)" height="1.5cm" width="1.5cm" x="18.0cm" y="9.0cm" /><rect fill="rgb(103,124,92)" height="1.5cm" width="1.5cm" x="19.5cm" y="9.0cm" /><rect fill="rgb(137,156,136)" height="1.5cm" width="1.5cm" x="21.0cm" y="9.0cm" /><rect fill="rgb(167,185,171)" height="1.5cm" width="1.5cm" x="22.5cm" y="9.0cm" /><rect fill="rgb(182,202,189)" height="1.5cm" width="1.5cm" x="24.0cm" y="9.0cm" /><rect fill="rgb(190,209,198)" height="1.5cm" width="1.5cm" x="25.5cm" y="9.0cm" /><rect fill="rgb(194,208,199)" height="1.5cm" width="1.5cm" x="27.0cm" y="9.0cm" /><rect fill="rgb(184,203,190)" height="1.5cm" width="1.5cm" x="28.5cm" y="9.0cm" /><rect fill="rgb(141,107,141)" height="1.5cm" width="1.5cm" x="0.0cm" y="10.5cm" /><rect fill="rgb(106,111,124)" height="1.5cm" width="1.5cm" x="1.5cm" y="10.5cm" /><rect fill="rgb(135,124,97)" height="1.5cm" width="1.5cm" x="3.0cm" y="10.5cm" /><rect fill="rgb(129,128,91)" height="1.5cm" width="1.5cm" x="4.5cm" y="10.5cm" /><rect fill="rgb(107,114,79)" height="1.5cm" width="1.5cm" x="6.0cm" y="10.5cm" /><rect fill="rgb(97,119,71)" height="1.5cm" width="1.5cm" x="7.5cm" y="10.5cm" /><rect fill="rgb(75,104,35)" height="1.5cm" width="1.5cm" x="9.0cm" y="10.5cm" /><rect fill="rgb(63,87,20)" height="1.5cm" width="1.5cm" x="10.5cm" y="10.5cm" /><rect fill="rgb(51,78,8)" height="1.5cm" width="1.5cm" x="12.0cm" y="10.5cm" /><rect fill="rgb(45,72,5)" height="1.5cm" width="1.5cm" x="13.5cm" y="10.5cm" /><rect fill="rgb(40,66,5)" height="1.5cm" width="1.5cm" x="15.0cm" y="10.5cm" /><rect fill="rgb(37,62,8)" height="1.5cm" width="1.5cm" x="16.5cm" y="10.5cm" /><rect fill="rgb(41,65,17)" height="1.5cm" width="1.5cm" x="18.0cm" y="10.5cm" /><rect fill="rgb(58,82,40)" height="1.5cm" width="1.5cm" x="19.5cm" y="10.5cm" /><rect fill="rgb(94,114,85)" height="1.5cm" width="1.5cm" x="21.0cm" y="10.5cm" /><rect fill="rgb(133,152,137)" height="1.5cm" width="1.5cm" x="22.5cm" y="10.5cm" /><rect fill="rgb(161,180,164)" height="1.5cm" width="1.5cm" x="24.0cm" y="10.5cm" /><rect fill="rgb(171,184,177)" height="1.5cm" width="1.5cm" x="25.5cm" y="10.5cm" /><rect fill="rgb(177,181,184)" height="1.5cm" width="1.5cm" x="27.0cm" y="10.5cm" /><rect fill="rgb(175,166,161)" height="1.5cm" width="1.5cm" x="28.5cm" y="10.5cm" /><rect fill="rgb(140,120,129)" height="1.5cm" width="1.5cm" x="0.0cm" y="12.0cm" /><rect fill="rgb(116,131,95)" height="1.5cm" width="1.5cm" x="1.5cm" y="12.0cm" /><rect fill="rgb(141,123,109)" height="1.5cm" width="1.5cm" x="3.0cm" y="12.0cm" /><rect fill="rgb(135,125,102)" height="1.5cm" width="1.5cm" x="4.5cm" y="12.0cm" /><rect fill="rgb(122,119,77)" height="1.5cm" width="1.5cm" x="6.0cm" y="12.0cm" /><rect fill="rgb(97,112,40)" height="1.5cm" width="1.5cm" x="7.5cm" y="12.0cm" /><rect fill="rgb(73,101,18)" height="1.5cm" width="1.5cm" x="9.0cm" y="12.0cm" /><rect fill="rgb(58,88,9)" height="1.5cm" width="1.5cm" x="10.5cm" y="12.0cm" /><rect fill="rgb(49,81,4)" height="1.5cm" width="1.5cm" x="12.0cm" y="12.0cm" /><rect fill="rgb(42,73,3)" height="1.5cm" width="1.5cm" x="13.5cm" y="12.0cm" /><rect fill="rgb(36,64,2)" height="1.5cm" width="1.5cm" x="15.0cm" y="12.0cm" /><rect fill="rgb(31,57,3)" height="1.5cm" width="1.5cm" x="16.5cm" y="12.0cm" /><rect fill="rgb(29,54,5)" height="1.5cm" width="1.5cm" x="18.0cm" y="12.0cm" /><rect fill="rgb(35,59,14)" height="1.5cm" width="1.5cm" x="19.5cm" y="12.0cm" /><rect fill="rgb(57,78,42)" height="1.5cm" width="1.5cm" x="21.0cm" y="12.0cm" /><rect fill="rgb(100,117,100)" height="1.5cm" width="1.5cm" x="22.5cm" y="12.0cm" /><rect fill="rgb(129,152,142)" height="1.5cm" width="1.5cm" x="24.0cm" y="12.0cm" /><rect fill="rgb(162,152,141)" height="1.5cm" width="1.5cm" x="25.5cm" y="12.0cm" /><rect fill="rgb(146,163,165)" height="1.5cm" width="1.5cm" x="27.0cm" y="12.0cm" /><rect fill="rgb(149,162,162)" height="1.5cm" width="1.5cm" x="28.5cm" y="12.0cm" /><rect fill="rgb(138,123,105)" height="1.5cm" width="1.5cm" x="0.0cm" y="13.5cm" /><rect fill="rgb(144,151,122)" height="1.5cm" width="1.5cm" x="1.5cm" y="13.5cm" /><rect fill="rgb(146,121,93)" height="1.5cm" width="1.5cm" x="3.0cm" y="13.5cm" /><rect fill="rgb(126,141,68)" height="1.5cm" width="1.5cm" x="4.5cm" y="13.5cm" /><rect fill="rgb(126,134,44)" height="1.5cm" width="1.5cm" x="6.0cm" y="13.5cm" /><rect fill="rgb(105,120,25)" height="1.5cm" width="1.5cm" x="7.5cm" y="13.5cm" /><rect fill="rgb(76,104,12)" height="1.5cm" width="1.5cm" x="9.0cm" y="13.5cm" /><rect fill="rgb(59,93,5)" height="1.5cm" width="1.5cm" x="10.5cm" y="13.5cm" /><rect fill="rgb(49,85,3)" height="1.5cm" width="1.5cm" x="12.0cm" y="13.5cm" /><rect fill="rgb(41,77,2)" height="1.5cm" width="1.5cm" x="13.5cm" y="13.5cm" /><rect fill="rgb(34,66,2)" height="1.5cm" width="1.5cm" x="15.0cm" y="13.5cm" /><rect fill="rgb(28,57,2)" height="1.5cm" width="1.5cm" x="16.5cm" y="13.5cm" /><rect fill="rgb(26,52,2)" height="1.5cm" width="1.5cm" x="18.0cm" y="13.5cm" /><rect fill="rgb(28,52,5)" height="1.5cm" width="1.5cm" x="19.5cm" y="13.5cm" /><rect fill="rgb(45,66,22)" height="1.5cm" width="1.5cm" x="21.0cm" y="13.5cm" /><rect fill="rgb(81,89,69)" height="1.5cm" width="1.5cm" x="22.5cm" y="13.5cm" /><rect fill="rgb(115,123,118)" height="1.5cm" width="1.5cm" x="24.0cm" y="13.5cm" /><rect fill="rgb(146,131,145)" height="1.5cm" width="1.5cm" x="25.5cm" y="13.5cm" /><rect fill="rgb(149,143,154)" height="1.5cm" width="1.5cm" x="27.0cm" y="13.5cm" /><rect fill="rgb(152,122,123)" height="1.5cm" width="1.5cm" x="28.5cm" y="13.5cm" /><rect fill="rgb(137,116,97)" height="1.5cm" width="1.5cm" x="0.0cm" y="15.0cm" /><rect fill="rgb(140,141,116)" height="1.5cm" width="1.5cm" x="1.5cm" y="15.0cm" /><rect fill="rgb(146,130,76)" height="1.5cm" width="1.5cm" x="3.0cm" y="15.0cm" /><rect fill="rgb(149,139,50)" height="1.5cm" width="1.5cm" x="4.5cm" y="15.0cm" /><rect fill="rgb(138,141,30)" height="1.5cm" width="1.5cm" x="6.0cm" y="15.0cm" /><rect fill="rgb(110,126,19)" height="1.5cm" width="1.5cm" x="7.5cm" y="15.0cm" /><rect fill="rgb(81,109,10)" height="1.5cm" width="1.5cm" x="9.0cm" y="15.0cm" /><rect fill="rgb(60,98,5)" height="1.5cm" width="1.5cm" x="10.5cm" y="15.0cm" /><rect fill="rgb(49,90,3)" height="1.5cm" width="1.5cm" x="12.0cm" y="15.0cm" /><rect fill="rgb(41,82,2)" height="1.5cm" width="1.5cm" x="13.5cm" y="15.0cm" /><rect fill="rgb(34,72,1)" height="1.5cm" width="1.5cm" x="15.0cm" y="15.0cm" /><rect fill="rgb(29,62,1)" height="1.5cm" width="1.5cm" x="16.5cm" y="15.0cm" /><rect fill="rgb(26,55,2)" height="1.5cm" width="1.5cm" x="18.0cm" y="15.0cm" /><rect fill="rgb(28,54,4)" height="1.5cm" width="1.5cm" x="19.5cm" y="15.0cm" /><rect fill="rgb(39,66,21)" height="1.5cm" width="1.5cm" x="21.0cm" y="15.0cm" /><rect fill="rgb(70,87,69)" height="1.5cm" width="1.5cm" x="22.5cm" y="15.0cm" /><rect fill="rgb(99,133,97)" height="1.5cm" width="1.5cm" x="24.0cm" y="15.0cm" /><rect fill="rgb(107,124,115)" height="1.5cm" width="1.5cm" x="25.5cm" y="15.0cm" /><rect fill="rgb(106,123,140)" height="1.5cm" width="1.5cm" x="27.0cm" y="15.0cm" /><rect fill="rgb(106,117,107)" height="1.5cm" width="1.5cm" x="28.5cm" y="15.0cm" /><rect fill="rgb(130,145,129)" height="1.5cm" width="1.5cm" x="0.0cm" y="16.5cm" /><rect fill="rgb(126,152,100)" height="1.5cm" width="1.5cm" x="1.5cm" y="16.5cm" /><rect fill="rgb(150,150,67)" height="1.5cm" width="1.5cm" x="3.0cm" y="16.5cm" /><rect fill="rgb(146,147,56)" height="1.5cm" width="1.5cm" x="4.5cm" y="16.5cm" /><rect fill="rgb(148,148,32)" height="1.5cm" width="1.5cm" x="6.0cm" y="16.5cm" /><rect fill="rgb(119,133,18)" height="1.5cm" width="1.5cm" x="7.5cm" y="16.5cm" /><rect fill="rgb(85,114,11)" height="1.5cm" width="1.5cm" x="9.0cm" y="16.5cm" /><rect fill="rgb(62,102,6)" height="1.5cm" width="1.5cm" x="10.5cm" y="16.5cm" /><rect fill="rgb(51,94,4)" height="1.5cm" width="1.5cm" x="12.0cm" y="16.5cm" /><rect fill="rgb(43,86,2)" height="1.5cm" width="1.5cm" x="13.5cm" y="16.5cm" /><rect fill="rgb(36,77,2)" height="1.5cm" width="1.5cm" x="15.0cm" y="16.5cm" /><rect fill="rgb(31,68,2)" height="1.5cm" width="1.5cm" x="16.5cm" y="16.5cm" /><rect fill="rgb(30,61,3)" height="1.5cm" width="1.5cm" x="18.0cm" y="16.5cm" /><rect fill="rgb(35,62,10)" height="1.5cm" width="1.5cm" x="19.5cm" y="16.5cm" /><rect fill="rgb(49,77,33)" height="1.5cm" width="1.5cm" x="21.0cm" y="16.5cm" /><rect fill="rgb(82,92,81)" height="1.5cm" width="1.5cm" x="22.5cm" y="16.5cm" /><rect fill="rgb(95,114,92)" height="1.5cm" width="1.5cm" x="24.0cm" y="16.5cm" /><rect fill="rgb(137,138,101)" height="1.5cm" width="1.5cm" x="25.5cm" y="16.5cm" /><rect fill="rgb(135,114,147)" height="1.5cm" width="1.5cm" x="27.0cm" y="16.5cm" /><rect fill="rgb(143,107,114)" height="1.5cm" width="1.5cm" x="28.5cm" y="16.5cm" /><rect fill="rgb(120,141,118)" height="1.5cm" width="1.5cm" x="0.0cm" y="18.0cm" /><rect fill="rgb(134,118,89)" height="1.5cm" width="1.5cm" x="1.5cm" y="18.0cm" /><rect fill="rgb(160,153,82)" height="1.5cm" width="1.5cm" x="3.0cm" y="18.0cm" /><rect fill="rgb(148,153,61)" height="1.5cm" width="1.5cm" x="4.5cm" y="18.0cm" /><rect fill="rgb(140,141,39)" height="1.5cm" width="1.5cm" x="6.0cm" y="18.0cm" /><rect fill="rgb(118,136,25)" height="1.5cm" width="1.5cm" x="7.5cm" y="18.0cm" /><rect fill="rgb(88,118,18)" height="1.5cm" width="1.5cm" x="9.0cm" y="18.0cm" /><rect fill="rgb(66,105,10)" height="1.5cm" width="1.5cm" x="10.5cm" y="18.0cm" /><rect fill="rgb(55,97,6)" height="1.5cm" width="1.5cm" x="12.0cm" y="18.0cm" /><rect fill="rgb(47,89,5)" height="1.5cm" width="1.5cm" x="13.5cm" y="18.0cm" /><rect fill="rgb(41,81,4)" height="1.5cm" width="1.5cm" x="15.0cm" y="18.0cm" /><rect fill="rgb(38,75,6)" height="1.5cm" width="1.5cm" x="16.5cm" y="18.0cm" /><rect fill="rgb(38,69,13)" height="1.5cm" width="1.5cm" x="18.0cm" y="18.0cm" /><rect fill="rgb(50,79,30)" height="1.5cm" width="1.5cm" x="19.5cm" y="18.0cm" /><rect fill="rgb(83,82,62)" height="1.5cm" width="1.5cm" x="21.0cm" y="18.0cm" /><rect fill="rgb(116,102,95)" height="1.5cm" width="1.5cm" x="22.5cm" y="18.0cm" /><rect fill="rgb(125,130,127)" height="1.5cm" width="1.5cm" x="24.0cm" y="18.0cm" /><rect fill="rgb(144,103,114)" height="1.5cm" width="1.5cm" x="25.5cm" y="18.0cm" /><rect fill="rgb(113,121,103)" height="1.5cm" width="1.5cm" x="27.0cm" y="18.0cm" /><rect fill="rgb(124,146,130)" height="1.5cm" width="1.5cm" x="28.5cm" y="18.0cm" /><rect fill="rgb(148,115,123)" height="1.5cm" width="1.5cm" x="0.0cm" y="19.5cm" /><rect fill="rgb(126,117,113)" height="1.5cm" width="1.5cm" x="1.5cm" y="19.5cm" /><rect fill="rgb(142,141,89)" height="1.5cm" width="1.5cm" x="3.0cm" y="19.5cm" /><rect fill="rgb(156,154,66)" height="1.5cm" width="1.5cm" x="4.5cm" y="19.5cm" /><rect fill="rgb(140,135,64)" height="1.5cm" width="1.5cm" x="6.0cm" y="19.5cm" /><rect fill="rgb(117,136,48)" height="1.5cm" width="1.5cm" x="7.5cm" y="19.5cm" /><rect fill="rgb(98,118,34)" height="1.5cm" width="1.5cm" x="9.0cm" y="19.5cm" /><rect fill="rgb(75,111,24)" height="1.5cm" width="1.5cm" x="10.5cm" y="19.5cm" /><rect fill="rgb(64,102,17)" height="1.5cm" width="1.5cm" x="12.0cm" y="19.5cm" /><rect fill="rgb(57,95,15)" height="1.5cm" width="1.5cm" x="13.5cm" y="19.5cm" /><rect fill="rgb(53,87,17)" height="1.5cm" width="1.5cm" x="15.0cm" y="19.5cm" /><rect fill="rgb(55,85,22)" height="1.5cm" width="1.5cm" x="16.5cm" y="19.5cm" /><rect fill="rgb(67,84,49)" height="1.5cm" width="1.5cm" x="18.0cm" y="19.5cm" /><rect fill="rgb(76,87,77)" height="1.5cm" width="1.5cm" x="19.5cm" y="19.5cm" /><rect fill="rgb(113,97,95)" height="1.5cm" width="1.5cm" x="21.0cm" y="19.5cm" /><rect fill="rgb(109,118,90)" height="1.5cm" width="1.5cm" x="22.5cm" y="19.5cm" /><rect fill="rgb(111,108,121)" height="1.5cm" width="1.5cm" x="24.0cm" y="19.5cm" /><rect fill="rgb(115,129,117)" height="1.5cm" width="1.5cm" x="25.5cm" y="19.5cm" /><rect fill="rgb(131,128,145)" height="1.5cm" width="1.5cm" x="27.0cm" y="19.5cm" /><rect fill="rgb(133,144,123)" height="1.5cm" width="1.5cm" x="28.5cm" y="19.5cm" /><rect fill="rgb(104,147,119)" height="1.5cm" width="1.5cm" x="0.0cm" y="21.0cm" /><rect fill="rgb(111,126,134)" height="1.5cm" width="1.5cm" x="1.5cm" y="21.0cm" /><rect fill="rgb(150,150,109)" height="1.5cm" width="1.5cm" x="3.0cm" y="21.0cm" /><rect fill="rgb(129,127,81)" height="1.5cm" width="1.5cm" x="4.5cm" y="21.0cm" /><rect fill="rgb(141,125,87)" height="1.5cm" width="1.5cm" x="6.0cm" y="21.0cm" /><rect fill="rgb(131,140,72)" height="1.5cm" width="1.5cm" x="7.5cm" y="21.0cm" /><rect fill="rgb(114,123,59)" height="1.5cm" width="1.5cm" x="9.0cm" y="21.0cm" /><rect fill="rgb(94,118,55)" height="1.5cm" width="1.5cm" x="10.5cm" y="21.0cm" /><rect fill="rgb(86,101,48)" height="1.5cm" width="1.5cm" x="12.0cm" y="21.0cm" /><rect fill="rgb(76,109,46)" height="1.5cm" width="1.5cm" x="13.5cm" y="21.0cm" /><rect fill="rgb(87,102,45)" height="1.5cm" width="1.5cm" x="15.0cm" y="21.0cm" /><rect fill="rgb(92,111,71)" height="1.5cm" width="1.5cm" x="16.5cm" y="21.0cm" /><rect fill="rgb(106,99,81)" height="1.5cm" width="1.5cm" x="18.0cm" y="21.0cm" /><rect fill="rgb(113,127,80)" height="1.5cm" width="1.5cm" x="19.5cm" y="21.0cm" /><rect fill="rgb(109,126,106)" height="1.5cm" width="1.5cm" x="21.0cm" y="21.0cm" /><rect fill="rgb(125,116,143)" height="1.5cm" width="1.5cm" x="22.5cm" y="21.0cm" /><rect fill="rgb(107,127,137)" height="1.5cm" width="1.5cm" x="24.0cm" y="21.0cm" /><rect fill="rgb(147,143,141)" height="1.5cm" width="1.5cm" x="25.5cm" y="21.0cm" /><rect fill="rgb(124,146,119)" height="1.5cm" width="1.5cm" x="27.0cm" y="21.0cm" /><rect fill="rgb(103,135,114)" height="1.5cm" width="1.5cm" x="28.5cm" y="21.0cm" /><rect fill="rgb(103,140,124)" height="1.5cm" width="1.5cm" x="0.0cm" y="22.5cm" /><rect fill="rgb(132,145,104)" height="1.5cm" width="1.5cm" x="1.5cm" y="22.5cm" /><rect fill="rgb(125,122,94)" height="1.5cm" width="1.5cm" x="3.0cm" y="22.5cm" /><rect fill="rgb(111,112,96)" height="1.5cm" width="1.5cm" x="4.5cm" y="22.5cm" /><rect fill="rgb(129,133,107)" height="1.5cm" width="1.5cm" x="6.0cm" y="22.5cm" /><rect fill="rgb(137,138,92)" height="1.5cm" width="1.5cm" x="7.5cm" y="22.5cm" /><rect fill="rgb(110,133,82)" height="1.5cm" width="1.5cm" x="9.0cm" y="22.5cm" /><rect fill="rgb(115,136,87)" height="1.5cm" width="1.5cm" x="10.5cm" y="22.5cm" /><rect fill="rgb(105,110,73)" height="1.5cm" width="1.5cm" x="12.0cm" y="22.5cm" /><rect fill="rgb(105,129,99)" height="1.5cm" width="1.5cm" x="13.5cm" y="22.5cm" /><rect fill="rgb(101,128,90)" height="1.5cm" width="1.5cm" x="15.0cm" y="22.5cm" /><rect fill="rgb(114,109,99)" height="1.5cm" width="1.5cm" x="16.5cm" y="22.5cm" /><rect fill="rgb(94,134,107)" height="1.5cm" width="1.5cm" x="18.0cm" y="22.5cm" /><rect fill="rgb(104,112,124)" height="1.5cm" width="1.5cm" x="19.5cm" y="22.5cm" /><rect fill="rgb(143,135,117)" height="1.5cm" width="1.5cm" x="21.0cm" y="22.5cm" /><rect fill="rgb(109,106,99)" height="1.5cm" width="1.5cm" x="22.5cm" y="22.5cm" /><rect fill="rgb(105,111,99)" height="1.5cm" width="1.5cm" x="24.0cm" y="22.5cm" /><rect fill="rgb(140,132,147)" height="1.5cm" width="1.5cm" x="25.5cm" y="22.5cm" /><rect fill="rgb(133,127,137)" height="1.5cm" width="1.5cm" x="27.0cm" y="22.5cm" /><rect fill="rgb(119,119,138)" height="1.5cm" width="1.5cm" x="28.5cm" y="22.5cm" /><rect fill="rgb(124,111,142)" height="1.5cm" width="1.5cm" x="0.0cm" y="24.0cm" /><rect fill="rgb(148,129,105)" height="1.5cm" width="1.5cm" x="1.5cm" y="24.0cm" /><rect fill="rgb(107,145,116)" height="1.5cm" width="1.5cm" x="3.0cm" y="24.0cm" /><rect fill="rgb(116,119,98)" height="1.5cm" width="1.5cm" x="4.5cm" y="24.0cm" /><rect fill="rgb(116,111,125)" height="1.5cm" width="1.5cm" x="6.0cm" y="24.0cm" /><rect fill="rgb(120,119,94)" height="1.5cm" width="1.5cm" x="7.5cm" y="24.0cm" /><rect fill="rgb(122,118,92)" height="1.5cm" width="1.5cm" x="9.0cm" y="24.0cm" /><rect fill="rgb(122,106,100)" height="1.5cm" width="1.5cm" x="10.5cm" y="24.0cm" /><rect fill="rgb(106,136,99)" height="1.5cm" width="1.5cm" x="12.0cm" y="24.0cm" /><rect fill="rgb(126,116,90)" height="1.5cm" width="1.5cm" x="13.5cm" y="24.0cm" /><rect fill="rgb(133,119,99)" height="1.5cm" width="1.5cm" x="15.0cm" y="24.0cm" /><rect fill="rgb(142,139,101)" height="1.5cm" width="1.5cm" x="16.5cm" y="24.0cm" /><rect fill="rgb(127,116,133)" height="1.5cm" width="1.5cm" x="18.0cm" y="24.0cm" /><rect fill="rgb(122,106,108)" height="1.5cm" width="1.5cm" x="19.5cm" y="24.0cm" /><rect fill="rgb(133,122,128)" height="1.5cm" width="1.5cm" x="21.0cm" y="24.0cm" /><rect fill="rgb(104,128,138)" height="1.5cm" width="1.5cm" x="22.5cm" y="24.0cm" /><rect fill="rgb(139,136,147)" height="1.5cm" width="1.5cm" x="24.0cm" y="24.0cm" /><rect fill="rgb(111,142,138)" height="1.5cm" width="1.5cm" x="25.5cm" y="24.0cm" /><rect fill="rgb(146,132,143)" height="1.5cm" width="1.5cm" x="27.0cm" y="24.0cm" /><rect fill="rgb(142,130,109)" height="1.5cm" width="1.5cm" x="28.5cm" y="24.0cm" /><rect fill="rgb(133,134,108)" height="1.5cm" width="1.5cm" x="0.0cm" y="25.5cm" /><rect fill="rgb(133,136,127)" height="1.5cm" width="1.5cm" x="1.5cm" y="25.5cm" /><rect fill="rgb(106,114,126)" height="1.5cm" width="1.5cm" x="3.0cm" y="25.5cm" /><rect fill="rgb(148,118,124)" height="1.5cm" width="1.5cm" x="4.5cm" y="25.5cm" /><rect fill="rgb(137,111,128)" height="1.5cm" width="1.5cm" x="6.0cm" y="25.5cm" /><rect fill="rgb(121,121,115)" height="1.5cm" width="1.5cm" x="7.5cm" y="25.5cm" /><rect fill="rgb(145,106,115)" height="1.5cm" width="1.5cm" x="9.0cm" y="25.5cm" /><rect fill="rgb(131,132,124)" height="1.5cm" width="1.5cm" x="10.5cm" y="25.5cm" /><rect fill="rgb(129,135,113)" height="1.5cm" width="1.5cm" x="12.0cm" y="25.5cm" /><rect fill="rgb(125,123,136)" height="1.5cm" width="1.5cm" x="13.5cm" y="25.5cm" /><rect fill="rgb(135,143,115)" height="1.5cm" width="1.5cm" x="15.0cm" y="25.5cm" /><rect fill="rgb(142,101,98)" height="1.5cm" width="1.5cm" x="16.5cm" y="25.5cm" /><rect fill="rgb(110,104,113)" height="1.5cm" width="1.5cm" x="18.0cm" y="25.5cm" /><rect fill="rgb(115,134,111)" height="1.5cm" width="1.5cm" x="19.5cm" y="25.5cm" /><rect fill="rgb(109,101,127)" height="1.5cm" width="1.5cm" x="21.0cm" y="25.5cm" /><rect fill="rgb(118,128,137)" height="1.5cm" width="1.5cm" x="22.5cm" y="25.5cm" /><rect fill="rgb(103,144,122)" height="1.5cm" width="1.5cm" x="24.0cm" y="25.5cm" /><rect fill="rgb(139,143,139)" height="1.5cm" width="1.5cm" x="25.5cm" y="25.5cm" /><rect fill="rgb(109,123,139)" height="1.5cm" width="1.5cm" x="27.0cm" y="25.5cm" /><rect fill="rgb(112,144,107)" height="1.5cm" width="1.5cm" x="28.5cm" y="25.5cm" /><rect fill="rgb(108,102,115)" height="1.5cm" width="1.5cm" x="0.0cm" y="27.0cm" /><rect fill="rgb(146,110,139)" height="1.5cm" width="1.5cm" x="1.5cm" y="27.0cm" /><rect fill="rgb(117,100,143)" height="1.5cm" width="1.5cm" x="3.0cm" y="27.0cm" /><rect fill="rgb(112,125,125)" height="1.5cm" width="1.5cm" x="4.5cm" y="27.0cm" /><rect fill="rgb(109,142,148)" height="1.5cm" width="1.5cm" x="6.0cm" y="27.0cm" /><rect fill="rgb(113,127,128)" height="1.5cm" width="1.5cm" x="7.5cm" y="27.0cm" /><rect fill="rgb(146,148,130)" height="1.5cm" width="1.5cm" x="9.0cm" y="27.0cm" /><rect fill="rgb(124,109,122)" height="1.5cm" width="1.5cm" x="10.5cm" y="27.0cm" /><rect fill="rgb(122,110,134)" height="1.5cm" width="1.5cm" x="12.0cm" y="27.0cm" /><rect fill="rgb(122,111,104)" height="1.5cm" width="1.5cm" x="13.5cm" y="27.0cm" /><rect fill="rgb(136,113,120)" height="1.5cm" width="1.5cm" x="15.0cm" y="27.0cm" /><rect fill="rgb(106,127,147)" height="1.5cm" width="1.5cm" x="16.5cm" y="27.0cm" /><rect fill="rgb(107,137,110)" height="1.5cm" width="1.5cm" x="18.0cm" y="27.0cm" /><rect fill="rgb(147,120,138)" height="1.5cm" width="1.5cm" x="19.5cm" y="27.0cm" /><rect fill="rgb(111,107,108)" height="1.5cm" width="1.5cm" x="21.0cm" y="27.0cm" /><rect fill="rgb(122,114,101)" height="1.5cm" width="1.5cm" x="22.5cm" y="27.0cm" /><rect fill="rgb(118,125,143)" height="1.5cm" width="1.5cm" x="24.0cm" y="27.0cm" /><rect fill="rgb(123,114,118)" height="1.5cm" width="1.5cm" x="25.5cm" y="27.0cm" /><rect fill="rgb(111,113,129)" height="1.5cm" width="1.5cm" x="27.0cm" y="27.0cm" /><rect fill="rgb(110,143,146)" height="1.5cm" width="1.5cm" x="28.5cm" y="27.0cm" /><rect fill="rgb(122,128,109)" height="1.5cm" width="1.5cm" x="0.0cm" y="28.5cm" /><rect fill="rgb(110,136,103)" height="1.5cm" width="1.5cm" x="1.5cm" y="28.5cm" /><rect fill="rgb(131,131,138)" height="1.5cm" width="1.5cm" x="3.0cm" y="28.5cm" /><rect fill="rgb(129,140,113)" height="1.5cm" width="1.5cm" x="4.5cm" y="28.5cm" /><rect fill="rgb(133,101,111)" height="1.5cm" width="1.5cm" x="6.0cm" y="28.5cm" /><rect fill="rgb(125,111,113)" height="1.5cm" width="1.5cm" x="7.5cm" y="28.5cm" /><rect fill="rgb(128,132,131)" height="1.5cm" width="1.5cm" x="9.0cm" y="28.5cm" /><rect fill="rgb(130,127,135)" height="1.5cm" width="1.5cm" x="10.5cm" y="28.5cm" /><rect fill="rgb(117,142,121)" height="1.5cm" width="1.5cm" x="12.0cm" y="28.5cm" /><rect fill="rgb(121,132,146)" height="1.5cm" width="1.5cm" x="13.5cm" y="28.5cm" /><rect fill="rgb(104,126,149)" height="1.5cm" width="1.5cm" x="15.0cm" y="28.5cm" /><rect fill="rgb(100,148,111)" height="1.5cm" width="1.5cm" x="16.5cm" y="28.5cm" /><rect fill="rgb(119,106,123)" height="1.5cm" width="1.5cm" x="18.0cm" y="28.5cm" /><rect fill="rgb(133,129,147)" height="1.5cm" width="1.5cm" x="19.5cm" y="28.5cm" /><rect fill="rgb(132,112,135)" height="1.5cm" width="1.5cm" x="21.0cm" y="28.5cm" /><rect fill="rgb(148,132,118)" height="1.5cm" width="1.5cm" x="22.5cm" y="28.5cm" /><rect fill="rgb(140,134,105)" height="1.5cm" width="1.5cm" x="24.0cm" y="28.5cm" /><rect fill="rgb(103,138,104)" height="1.5cm" width="1.5cm" x="25.5cm" y="28.5cm" /><rect fill="rgb(146,111,108)" height="1.5cm" width="1.5cm" x="27.0cm" y="28.5cm" /><rect fill="rgb(107,115,140)" height="1.5cm" width="1.5cm" x="28.5cm" y="28.5cm" /></svg>